<mxfile host="app.diagrams.net" modified="2021-01-26T09:54:59.136Z" agent="5.0 (Windows NT 10.0; Win64; x64) AppleWebKit/537.36 (KHTML, like Gecko) Chrome/87.0.4280.141 Safari/537.36" etag="ciwQTu4CJhRUHKmJYR5h" version="14.2.7" type="github">
  <diagram id="C5RBs43oDa-KdzZeNtuy" name="Page-1">
    <mxGraphModel dx="920" dy="540" grid="1" gridSize="10" guides="1" tooltips="1" connect="1" arrows="1" fold="1" page="1" pageScale="1" pageWidth="827" pageHeight="1169" math="0" shadow="0">
      <root>
        <mxCell id="WIyWlLk6GJQsqaUBKTNV-0" />
        <mxCell id="WIyWlLk6GJQsqaUBKTNV-1" parent="WIyWlLk6GJQsqaUBKTNV-0" />
        <mxCell id="XxQt_wGNEEvx-sWhl0hz-8" style="edgeStyle=orthogonalEdgeStyle;rounded=0;orthogonalLoop=1;jettySize=auto;html=1;fillColor=#f8cecc;strokeColor=#b85450;" edge="1" parent="WIyWlLk6GJQsqaUBKTNV-1" source="XxQt_wGNEEvx-sWhl0hz-1" target="XxQt_wGNEEvx-sWhl0hz-2">
          <mxGeometry relative="1" as="geometry" />
        </mxCell>
        <mxCell id="XxQt_wGNEEvx-sWhl0hz-1" value="python client call:&lt;br&gt;task_id ,base64" style="rounded=1;whiteSpace=wrap;html=1;" vertex="1" parent="WIyWlLk6GJQsqaUBKTNV-1">
          <mxGeometry x="220" y="290" width="110" height="60" as="geometry" />
        </mxCell>
        <mxCell id="XxQt_wGNEEvx-sWhl0hz-6" value="" style="edgeStyle=orthogonalEdgeStyle;rounded=0;orthogonalLoop=1;jettySize=auto;html=1;fillColor=#f8cecc;strokeColor=#b85450;" edge="1" parent="WIyWlLk6GJQsqaUBKTNV-1" source="XxQt_wGNEEvx-sWhl0hz-2" target="XxQt_wGNEEvx-sWhl0hz-5">
          <mxGeometry relative="1" as="geometry" />
        </mxCell>
        <mxCell id="XxQt_wGNEEvx-sWhl0hz-2" value="java scf" style="ellipse;whiteSpace=wrap;html=1;" vertex="1" parent="WIyWlLk6GJQsqaUBKTNV-1">
          <mxGeometry x="70" y="370" width="120" height="80" as="geometry" />
        </mxCell>
        <mxCell id="XxQt_wGNEEvx-sWhl0hz-12" style="edgeStyle=orthogonalEdgeStyle;rounded=0;orthogonalLoop=1;jettySize=auto;html=1;entryX=1;entryY=0.5;entryDx=0;entryDy=0;fillColor=#d5e8d4;strokeColor=#82b366;" edge="1" parent="WIyWlLk6GJQsqaUBKTNV-1" source="XxQt_wGNEEvx-sWhl0hz-4" target="XxQt_wGNEEvx-sWhl0hz-1">
          <mxGeometry relative="1" as="geometry">
            <Array as="points">
              <mxPoint x="450" y="320" />
            </Array>
          </mxGeometry>
        </mxCell>
        <mxCell id="XxQt_wGNEEvx-sWhl0hz-4" value="java scf" style="ellipse;whiteSpace=wrap;html=1;" vertex="1" parent="WIyWlLk6GJQsqaUBKTNV-1">
          <mxGeometry x="390" y="370" width="120" height="80" as="geometry" />
        </mxCell>
        <mxCell id="XxQt_wGNEEvx-sWhl0hz-14" value="" style="edgeStyle=orthogonalEdgeStyle;rounded=0;orthogonalLoop=1;jettySize=auto;html=1;fillColor=#f8cecc;strokeColor=#b85450;" edge="1" parent="WIyWlLk6GJQsqaUBKTNV-1" source="XxQt_wGNEEvx-sWhl0hz-5" target="XxQt_wGNEEvx-sWhl0hz-13">
          <mxGeometry relative="1" as="geometry" />
        </mxCell>
        <mxCell id="XxQt_wGNEEvx-sWhl0hz-5" value="jar preprocess 模型数据" style="whiteSpace=wrap;html=1;" vertex="1" parent="WIyWlLk6GJQsqaUBKTNV-1">
          <mxGeometry x="70" y="490" width="120" height="60" as="geometry" />
        </mxCell>
        <mxCell id="XxQt_wGNEEvx-sWhl0hz-16" value="" style="edgeStyle=orthogonalEdgeStyle;rounded=0;orthogonalLoop=1;jettySize=auto;html=1;fillColor=#f8cecc;strokeColor=#b85450;" edge="1" parent="WIyWlLk6GJQsqaUBKTNV-1" source="XxQt_wGNEEvx-sWhl0hz-13" target="XxQt_wGNEEvx-sWhl0hz-15">
          <mxGeometry relative="1" as="geometry" />
        </mxCell>
        <mxCell id="XxQt_wGNEEvx-sWhl0hz-13" value="python preprocess 模型数据" style="ellipse;whiteSpace=wrap;html=1;" vertex="1" parent="WIyWlLk6GJQsqaUBKTNV-1">
          <mxGeometry x="70" y="600" width="120" height="80" as="geometry" />
        </mxCell>
        <mxCell id="XxQt_wGNEEvx-sWhl0hz-18" value="" style="edgeStyle=orthogonalEdgeStyle;rounded=0;orthogonalLoop=1;jettySize=auto;html=1;fillColor=#d5e8d4;strokeColor=#82b366;" edge="1" parent="WIyWlLk6GJQsqaUBKTNV-1" source="XxQt_wGNEEvx-sWhl0hz-15" target="XxQt_wGNEEvx-sWhl0hz-17">
          <mxGeometry relative="1" as="geometry" />
        </mxCell>
        <mxCell id="XxQt_wGNEEvx-sWhl0hz-15" value="predictor.py call 模型" style="ellipse;whiteSpace=wrap;html=1;" vertex="1" parent="WIyWlLk6GJQsqaUBKTNV-1">
          <mxGeometry x="230" y="600" width="110" height="80" as="geometry" />
        </mxCell>
        <mxCell id="XxQt_wGNEEvx-sWhl0hz-20" value="" style="edgeStyle=orthogonalEdgeStyle;rounded=0;orthogonalLoop=1;jettySize=auto;html=1;fillColor=#d5e8d4;strokeColor=#82b366;" edge="1" parent="WIyWlLk6GJQsqaUBKTNV-1" source="XxQt_wGNEEvx-sWhl0hz-17" target="XxQt_wGNEEvx-sWhl0hz-19">
          <mxGeometry relative="1" as="geometry" />
        </mxCell>
        <mxCell id="XxQt_wGNEEvx-sWhl0hz-17" value="python postprocess 模型结果" style="ellipse;whiteSpace=wrap;html=1;" vertex="1" parent="WIyWlLk6GJQsqaUBKTNV-1">
          <mxGeometry x="390" y="600" width="120" height="80" as="geometry" />
        </mxCell>
        <mxCell id="XxQt_wGNEEvx-sWhl0hz-21" style="edgeStyle=orthogonalEdgeStyle;rounded=0;orthogonalLoop=1;jettySize=auto;html=1;entryX=0.5;entryY=1;entryDx=0;entryDy=0;fillColor=#d5e8d4;strokeColor=#82b366;" edge="1" parent="WIyWlLk6GJQsqaUBKTNV-1" source="XxQt_wGNEEvx-sWhl0hz-19" target="XxQt_wGNEEvx-sWhl0hz-4">
          <mxGeometry relative="1" as="geometry" />
        </mxCell>
        <mxCell id="XxQt_wGNEEvx-sWhl0hz-19" value="jar postprocess 模型数据" style="whiteSpace=wrap;html=1;" vertex="1" parent="WIyWlLk6GJQsqaUBKTNV-1">
          <mxGeometry x="390" y="490" width="120" height="60" as="geometry" />
        </mxCell>
      </root>
    </mxGraphModel>
  </diagram>
</mxfile>
